<?xml version="1.0" encoding="utf-8"?>
<!-- Generator: Adobe Illustrator 27.5.0, SVG Export Plug-In . SVG Version: 6.00 Build 0)  -->
<svg version="1.1" xmlns="http://www.w3.org/2000/svg" xmlns:xlink="http://www.w3.org/1999/xlink" x="0px" y="0px"
	 viewBox="0 0 500 500" style="enable-background:new 0 0 500 500;" xml:space="preserve">
<g id="BACKGROUND">
	<path id="XMLID_745_" style="fill:#EBF1F4;" d="M258.264,457.445c-40.462,1.744-81.219-7.438-117.969-25.281
		c-31.093-15.097-59.873-37.299-78.206-67.647c-18.333-30.348-25.05-69.513-12.729-103.025c8.085-21.993,23.965-41.58,24.949-65.129
		c0.667-15.97-5.737-31.262-7.98-47.074c-4.64-32.699,10.072-67.281,35.729-86.494c25.657-19.212,60.953-22.752,90.093-10.112
		c26.256,11.389,46.755,34.281,72.871,46.018c36.378,16.348,78.364,9.01,116.958,18.205c37.638,8.967,72.019,35.17,88.459,71.78
		c16.44,36.61,13.016,83.132-11.425,114.44c-18.017,23.08-45.24,36.642-63.38,59.615c-10.637,13.471-17.727,29.665-28.039,43.411
		C367.595,406.152,344.203,453.741,258.264,457.445z"/>
	<g id="XMLID_2_">
		<defs>
			<path id="XMLID_1_" d="M258.264,457.445c-40.462,1.744-81.219-7.438-117.969-25.281c-31.093-15.097-59.873-37.299-78.206-67.647
				c-18.333-30.348-25.05-69.513-12.729-103.025c8.085-21.993,23.965-41.58,24.949-65.129c0.667-15.97-5.737-31.262-7.98-47.074
				c-4.64-32.699,10.072-67.281,35.729-86.494c25.657-19.212,60.953-22.752,90.093-10.112
				c26.256,11.389,46.755,34.281,72.871,46.018c36.378,16.348,78.364,9.01,116.958,18.205c37.638,8.967,72.019,35.17,88.459,71.78
				c16.44,36.61,13.016,83.132-11.425,114.44c-18.017,23.08-45.24,36.642-63.38,59.615c-10.637,13.471-17.727,29.665-28.039,43.411
				C367.595,406.152,344.203,453.741,258.264,457.445z"/>
		</defs>
		<clipPath id="XMLID_00000067203453783511143400000003251700898624596119_">
			<use xlink:href="#XMLID_1_"  style="overflow:visible;"/>
		</clipPath>
	</g>
	<g id="XMLID_4_">
		<defs>
			<path id="XMLID_3_" d="M258.264,457.445c-40.462,1.744-81.219-7.438-117.969-25.281c-31.093-15.097-59.873-37.299-78.206-67.647
				c-18.333-30.348-25.05-69.513-12.729-103.025c8.085-21.993,23.965-41.58,24.949-65.129c0.667-15.97-5.737-31.262-7.98-47.074
				c-4.64-32.699,10.072-67.281,35.729-86.494c25.657-19.212,60.953-22.752,90.093-10.112
				c26.256,11.389,46.755,34.281,72.871,46.018c36.378,16.348,78.364,9.01,116.958,18.205c37.638,8.967,72.019,35.17,88.459,71.78
				c16.44,36.61,13.016,83.132-11.425,114.44c-18.017,23.08-45.24,36.642-63.38,59.615c-10.637,13.471-17.727,29.665-28.039,43.411
				C367.595,406.152,344.203,453.741,258.264,457.445z"/>
		</defs>
		<clipPath id="XMLID_00000131360182244056995460000016745642568010961066_">
			<use xlink:href="#XMLID_3_"  style="overflow:visible;"/>
		</clipPath>
		<g id="XMLID_584_" style="clip-path:url(#XMLID_00000131360182244056995460000016745642568010961066_);">
			
				<rect id="XMLID_575_" x="78.897" y="104.211" style="fill:none;stroke:#B1C4CA;stroke-width:1.0115;stroke-miterlimit:10;" width="53.098" height="17.56"/>
			
				<rect id="XMLID_576_" x="137.739" y="104.211" style="fill:none;stroke:#B1C4CA;stroke-width:1.0115;stroke-miterlimit:10;" width="53.098" height="17.56"/>
			
				<rect id="XMLID_579_" x="108.031" y="82.515" style="fill:none;stroke:#B1C4CA;stroke-width:1.0115;stroke-miterlimit:10;" width="53.098" height="17.56"/>
			
				<rect id="XMLID_577_" x="108.031" y="126.139" style="fill:none;stroke:#B1C4CA;stroke-width:1.0115;stroke-miterlimit:10;" width="53.098" height="17.56"/>
			
				<rect id="XMLID_578_" x="49.786" y="126.139" style="fill:none;stroke:#B1C4CA;stroke-width:1.0115;stroke-miterlimit:10;" width="53.098" height="17.56"/>
			<polyline id="XMLID_580_" style="fill:none;stroke:#B1C4CA;stroke-width:1.0115;stroke-miterlimit:10;" points="219.949,143.699 
				166.851,143.699 166.851,126.139 219.949,126.139 			"/>
			
				<rect id="XMLID_583_" x="50.469" y="82.515" style="fill:none;stroke:#B1C4CA;stroke-width:1.0115;stroke-miterlimit:10;" width="53.098" height="17.56"/>
		</g>
	</g>
</g>
<g id="OBJECTS">
	<g id="XMLID_224_">
		
			<line id="XMLID_222_" style="fill:none;stroke:#8DA5B6;stroke-width:2.0425;stroke-miterlimit:10;" x1="411.578" y1="156.417" x2="411.578" y2="360.734"/>
		<rect id="XMLID_221_" x="396.673" y="359.568" style="fill:#8DA5B6;" width="30.18" height="5.057"/>
		<polygon id="XMLID_225_" style="fill:#5077A3;" points="385.188,156.417 438.338,156.227 417.964,104.214 403.158,104.214 		"/>
		<path id="XMLID_589_" style="opacity:0.25;fill:#5077A3;" d="M396.945,156.374l41.393-0.148l-20.374-52.012
			C417.964,104.214,441.191,156.668,396.945,156.374z"/>
	</g>
	<polyline id="XMLID_253_" style="fill:none;stroke:#B1C4CA;stroke-width:2;stroke-miterlimit:10;" points="35.058,366.756 
		35.058,285.088 90.533,285.088 90.533,367.95 	"/>
	<g id="XMLID_139_">
		<path id="XMLID_333_" style="fill:#7BACBF;" d="M147.117,217.109c0,0-0.941-53.22,84.386-52.42c0,0,107.197-15.84,118.597,52.42
			l12.478,61.366H135.58L147.117,217.109z"/>
		<rect id="XMLID_154_" x="149.623" y="277.283" style="fill:#8EB8C9;" width="197.903" height="74.205"/>
		<path id="XMLID_232_" style="fill:#BBD2DC;" d="M146.992,277.283c0,0-0.965-24.518,19.318-26.32H331.23
			c20.283,1.802,19.318,26.32,19.318,26.32"/>
		<path id="XMLID_233_" style="fill:#BBD2DC;" d="M150.475,351.488h-23.604l-19.482-95.119c0,0-12.114-53.46,21.543-54.661
			c0,0,23.375-0.003,21.543,44.45V351.488z"/>
		<path id="XMLID_203_" style="fill:#BBD2DC;" d="M347.628,351.488h23.604l19.482-95.119c0,0,12.114-53.46-21.543-54.661
			c0,0-23.375-0.003-21.543,44.45V351.488z"/>
		<path id="XMLID_206_" style="fill:#7C98AB;" d="M367.819,351.514c0,0-0.375,13.202-8.567,13.15c0,0-5.783,0.602-7.047-13.15
			H367.819z"/>
		<path id="XMLID_219_" style="fill:#7C98AB;" d="M146.992,351.488c0,0-0.375,13.202-8.567,13.15c0,0-5.783,0.603-7.047-13.15
			H146.992z"/>
	</g>
	<g id="XMLID_226_">
		<g id="XMLID_220_">
			<path id="XMLID_202_" style="fill:#F7C5B4;" d="M242.163,230.389c-0.484,3.864-0.968,7.727-1.452,11.591
				c-0.178,1.418-0.383,3.835-1.049,5.099c-1.066,2.023-10,5.169-11.733,6.136c0,0,6.083,8.306,23.922,7.599
				c17.84-0.706,25.527-7.157,25.527-7.157c-1.733-0.967-11.328-3.853-12.394-5.877c-0.666-1.264-0.872-3.681-1.049-5.099
				c-0.484-3.864-0.968-7.728-1.452-11.591L242.163,230.389z"/>
			<path id="XMLID_549_" style="fill:#F7C5B4;" d="M272.276,194.228c1.51,8.177-0.639,24.632-2.393,31.134
				c-0.713,2.643-1.48,5.376-3.182,7.52c-8.409,10.592-19.619,7.245-23.304,4.823c-2.891-1.9-5.194-4.51-6.527-7.703
				c-3.402-8.148-4.797-17.125-4.03-25.921c0,0-0.978-22.954,22.499-22.954C255.34,181.128,269.754,180.574,272.276,194.228z"/>
			<path id="XMLID_548_" style="fill:#F7C5B4;" d="M233.271,214.901c-0.504,0.73-1.673,0.708-2.367,0.156
				c-0.695-0.552-1.004-1.454-1.174-2.325c-0.166-0.852-0.231-1.723-0.193-2.59c0.027-0.622,0.124-1.281,0.529-1.753
				c0.404-0.471,1.095-0.672,1.688-0.491c0.593,0.181,1.055,0.733,1.127,1.349L233.271,214.901z"/>
			<path id="XMLID_545_" style="fill:#F7C5B4;" d="M272.275,208.258c0.193-0.589,0.534-1.168,1.127-1.349
				c0.593-0.181,1.285,0.02,1.688,0.491c0.405,0.472,0.502,1.131,0.529,1.753c0.038,0.867-0.027,1.738-0.193,2.59
				c-0.169,0.871-0.479,1.773-1.174,2.325c-0.694,0.552-1.863,0.574-2.367-0.156C271.885,213.911,271.373,211.016,272.275,208.258z"
				/>
			<path id="XMLID_155_" style="fill:#3C3C3B;" d="M239.732,190.357c0.922,3.055,0.743,6.387-0.231,9.425
				c-0.974,3.039-2.715,5.796-4.827,8.187c-0.585,0.662-1.489,1.353-2.26,0.923c-0.382-0.213-0.582-0.641-0.742-1.048
				c-1.932-4.919-1.348-10.753,1.521-15.191c-0.033-3.705,1.019-7.742,3.551-10.447c2.533-2.705,6.128-4.387,9.828-4.598
				c1.451-0.083,2.959-0.422,4.354-0.012s2.729,1.041,4.161,1.283c3.49,0.589,6.905-1.191,9.943-3.006
				c0.58,1.594,0.096,3.519-1.169,4.649c4.339,0.861,8.627-1.378,12.484-3.543c0.613,1.32,0.233,2.931-0.591,4.131
				c-0.824,1.2-2.03,2.074-3.212,2.924c1.876-0.023,3.742-0.588,5.316-1.61c0.456,6.585-2.382,10.854-3.387,12.516
				c-1.244,2.058-3.339,3.542-5.644,4.228c-2.635,0.784-5.56,0.546-8.033-0.654c-1.738-0.843-3.286-2.148-5.173-2.558
				c-1.076-0.234-2.191-0.158-3.292-0.171c-3.608-0.041-7.201-1.063-10.29-2.928c-0.97-0.586-1.959-1.349-2.221-2.452"/>
			<path id="XMLID_540_" style="fill:#F7C5B4;" d="M262.808,236.723c0,0-3.102,2.98-9.662,3.512
				c-6.56,0.533-10.772-3.229-11.447-3.859c0,0,1.35,7.233,10.809,7.301C261.634,243.744,262.808,236.723,262.808,236.723z"/>
			<path id="XMLID_324_" style="fill:#3C3C3B;" d="M244.535,211.095c0,1.032-0.837,1.869-1.868,1.869
				c-1.032,0-1.868-0.837-1.868-1.869c0-1.032,0.837-1.868,1.868-1.868C243.698,209.227,244.535,210.063,244.535,211.095z"/>
			<path id="XMLID_279_" style="fill:#3C3C3B;" d="M260.209,211.066c0,1.032,0.836,1.868,1.868,1.868
				c1.032,0,1.868-0.837,1.868-1.868c0-1.032-0.836-1.868-1.868-1.868C261.045,209.197,260.209,210.034,260.209,211.066z"/>
			<path id="XMLID_278_" style="fill:#3C3C3B;" d="M249.171,207.289c0.34-1.173,0.214-2.482-0.405-3.535
				c-0.185,0.376-0.732,0.512-1.071,0.267c-0.142-0.103-0.251-0.259-0.418-0.315c-0.134-0.045-0.28-0.015-0.421,0
				c-0.621,0.067-1.23-0.16-1.836-0.313c-2.65-0.664-5.627,0.192-7.518,2.164c0.655,0.497,1.574,0.291,2.393,0.218
				c3.192-0.284,5.708,1.887,8.907,1.695C248.802,207.471,249.123,207.455,249.171,207.289z"/>
			<path id="XMLID_277_" style="fill:#3C3C3B;" d="M256.285,207.152c-0.313-1.181-0.155-2.487,0.489-3.525
				c0.176,0.38,0.719,0.53,1.065,0.293c0.145-0.099,0.257-0.253,0.425-0.305c0.135-0.042,0.281-0.009,0.421,0.01
				c0.619,0.081,1.233-0.131,1.842-0.269c2.665-0.602,5.62,0.326,7.464,2.342c-0.667,0.482-1.58,0.253-2.397,0.161
				c-3.184-0.36-5.752,1.751-8.945,1.483C256.649,207.342,256.329,207.319,256.285,207.152z"/>
			<g id="XMLID_257_">
				<path id="XMLID_12_" style="fill:#DA806C;" d="M253.135,226.046c0,0-0.106,0.04-0.314,0.099
					c-0.212,0.059-0.508,0.135-0.879,0.164c-0.736,0.07-1.754-0.058-2.651-0.518c-0.438-0.227-0.852-0.535-1.185-0.855
					c-0.339-0.322-0.592-0.68-0.788-0.994c-0.195-0.317-0.306-0.607-0.379-0.809c-0.073-0.202-0.105-0.321-0.105-0.321l-0.002-0.008
					c-0.027-0.101,0.032-0.206,0.133-0.233c0.094-0.026,0.192,0.025,0.227,0.115c0,0,0.165,0.428,0.557,0.975
					c0.192,0.275,0.454,0.566,0.757,0.85c0.309,0.286,0.664,0.534,1.062,0.74c0.78,0.421,1.683,0.568,2.352,0.57
					c0.334-0.002,0.621-0.023,0.811-0.055c0.194-0.028,0.314-0.056,0.314-0.056c0.093-0.022,0.187,0.036,0.209,0.129
					c0.02,0.086-0.027,0.172-0.107,0.202L253.135,226.046z"/>
			</g>
			<path id="XMLID_255_" style="fill:#3C3C3B;" d="M270.295,196.643c-0.516,3.61,0.149,7.38,1.869,10.595
				c0.202,0.377,0.474,0.787,0.897,0.847c0.36,0.051,0.713-0.186,0.906-0.494c0.194-0.308,0.262-0.676,0.327-1.035
				c0.665-3.695,1.303-7.648-0.202-11.087c-0.111-0.254-0.239-0.51-0.451-0.688c-0.245-0.206-0.576-0.282-0.896-0.289
				c-1.32-0.027-2.53,1.2-2.485,2.519"/>
			<g id="XMLID_144_">
				<path id="XMLID_14_" style="fill:#DA806C;" d="M251.405,211.153c0,0-0.097,0.697-0.243,1.742
					c-0.13,1.043-0.276,2.435-0.316,3.831c-0.03,0.697-0.045,1.396-0.031,2.051c0.007,0.342,0.009,0.584,0.096,0.774
					c0.065,0.154,0.232,0.322,0.41,0.422c0.359,0.205,0.776,0.252,1.067,0.268c0.303,0.014,0.476,0.023,0.476,0.023
					c0.158,0.008,0.279,0.141,0.272,0.299c-0.007,0.138-0.11,0.248-0.241,0.269l-0.008,0.001c0,0-0.173,0.027-0.498,0.049
					c-0.318,0.005-0.829,0.06-1.428-0.226c-0.289-0.147-0.591-0.36-0.803-0.754c-0.194-0.36-0.21-0.783-0.218-1.1
					c-0.024-0.674-0.032-1.394-0.003-2.112c0.07-1.438,0.268-2.866,0.503-3.917c0.228-1.055,0.456-1.732,0.456-1.732l0.002-0.006
					c0.046-0.137,0.195-0.21,0.331-0.164C251.35,210.91,251.422,211.031,251.405,211.153z"/>
			</g>
			<path id="XMLID_252_" style="fill:#FF9A79;" d="M287.975,353.532c-4.574-27.321,0.248-51.226,0.248-51.226
				c9.062-2.841,20.139-9.489,20.139-9.489c-1.602-5.561-3.734-10.97-6.357-16.129c-1.727-3.396-3.678-6.701-6.119-9.626
				c-7.26-8.699-18.159-13.334-28.631-17.662c0,0-3.608,7.986-16.469,7.986c-12.861,0-14.804-7.986-14.804-7.986
				c-10.472,4.328-19.54,6.934-26.8,15.633c-2.441,2.925-6.223,8.258-7.95,11.655c-2.623,5.159-4.755,10.567-6.357,16.129
				c0,0,11.209,7.5,19.783,9.479c0,0,5.29,22.243,0.171,53.442"/>
			<path id="XMLID_247_" style="fill:#3C3C3B;" d="M274.591,307.751h-8.895v-3.29h-10.856v3.29h-7.335v-3.29h-10.856v3.29h-8.093
				c-1.607,0-2.914,1.308-2.914,2.914v8.889c0,1.168,0.695,2.171,1.69,2.636c0.852,1.971,2.543,5.069,4.825,5.256
				c0.074,0.006,0.148,0.008,0.222,0.008c2.54,0,5.195-3.45,6.251-4.986h25.895c1.056,1.536,3.711,4.986,6.251,4.986
				c0.074,0,0.148-0.003,0.222-0.008c2.284-0.187,3.976-3.291,4.828-5.261c0.989-0.466,1.68-1.466,1.68-2.631v-8.889
				C277.505,309.059,276.198,307.751,274.591,307.751z"/>
			<g id="XMLID_245_">
				<path id="XMLID_585_" style="fill:#F7C5B4;" d="M307.538,293.301c6.799,10.963,7.048,14.928,12.964,27.056
					c1.717,3.519,3.48,7.302,2.959,11.183c-0.407,3.038-4.124,5.003-7.156,5.449c-4.252,0.625-8.615-0.452-12.497-2.297
					c-3.882-1.845-7.357-4.429-10.804-6.996c-1.81-1.348-3.621-2.696-5.431-4.044c-1.441-1.073-3.571-0.564-5.326-0.181
					c-3.408,0.743-7.072,1.278-10.301-0.042c-0.595-0.243-1.185-0.562-1.575-1.073c-0.391-0.511-0.536-1.252-0.209-1.805
					c0.485-0.819,1.659-0.839,2.59-0.64c0.931,0.199,1.965,0.499,2.783,0.01c-2.342,0.549-4.943-0.18-6.659-1.865
					c-0.365-0.359-0.685-0.99-0.301-1.328c0.235-0.207,0.593-0.152,0.898-0.085c1.593,0.351,3.187,0.702,4.781,1.052
					c-1.904-0.005-3.79-0.85-5.061-2.267c-0.219-0.245-0.429-0.523-0.466-0.85c-0.08-0.698,0.686-1.244,1.389-1.245
					c0.703-0.001,1.347,0.357,1.995,0.629c1.059,0.445,2.208,0.676,3.358,0.675c-1.545,0.123-3.369-0.519-4.684-1.339
					c-0.314-0.195-0.625-0.43-0.778-0.767c-0.153-0.337-0.09-0.797,0.227-0.987c0.336-0.202,0.762-0.029,1.118,0.135
					c0.687,0.317,1.392,0.596,2.111,0.835c0.526,0.175,1.079,0.33,1.627,0.25c0.548-0.081,1.089-0.46,1.189-1.004
					c0.118-0.639-0.372-1.215-0.826-1.68c-0.599-0.614-1.708-0.953-2.533-1.187c-0.825-0.234-1.731-0.824-1.677-1.68
					c0.036-0.569,0.524-1.034,1.07-1.2c0.546-0.166,1.135-0.087,1.691,0.044c1.706,0.401,4.759,1.55,6.277,2.425
					c0,0,2.42,1.447,4.711,2.773c2.291,1.327,3.628,1.991,3.628,1.991c2.843,0.942,5.699,1.847,8.566,2.714l-0.237-0.307
					c-1.561-3.028-4.302-9.084-6.833-13.98c0,0,5.293-2.044,9.919-4.331C302.749,295.997,307.538,293.301,307.538,293.301z"/>
			</g>
			<g id="XMLID_242_">
				<path id="XMLID_44_" style="fill:#3C3C3B;" d="M310.11,319.593c0,0-0.847-0.088-2.087-0.33c-1.241-0.235-2.877-0.62-4.493-1.071
					c-1.615-0.457-3.211-0.98-4.393-1.427c-1.184-0.44-1.952-0.808-1.952-0.808s0.847,0.087,2.087,0.329
					c1.242,0.235,2.877,0.621,4.493,1.072c1.615,0.458,3.211,0.982,4.393,1.428C309.341,319.227,310.11,319.593,310.11,319.593z"/>
			</g>
			<g id="XMLID_240_">
				<path id="XMLID_243_" style="fill:#F7C5B4;" d="M213.678,302.048c-2.69,5.245-5.692,9.66-7.387,12.948l-0.237,0.307
					c2.867-0.867,5.723-1.772,8.566-2.714c0,0,1.337-0.665,3.628-1.991c2.291-1.327,4.711-2.774,4.711-2.774
					c1.518-0.875,4.571-2.024,6.277-2.425c0.555-0.131,1.145-0.209,1.691-0.044c0.546,0.166,1.034,0.631,1.07,1.2
					c0.054,0.856-0.852,1.446-1.677,1.68s-1.934,0.573-2.533,1.187c-0.454,0.465-0.944,1.04-0.826,1.679
					c0.101,0.545,0.641,0.924,1.189,1.005c0.548,0.081,1.102-0.074,1.627-0.25c0.718-0.239,1.423-0.518,2.111-0.835
					c0.356-0.164,0.782-0.336,1.118-0.135c0.317,0.19,0.381,0.651,0.228,0.987c-0.153,0.337-0.465,0.571-0.779,0.767
					c-1.316,0.82-3.139,1.462-4.684,1.339c1.149,0.001,2.298-0.23,3.358-0.675c0.648-0.272,1.292-0.63,1.995-0.629
					c0.703,0.001,1.469,0.547,1.389,1.245c-0.037,0.326-0.247,0.605-0.466,0.85c-1.271,1.417-3.157,2.262-5.061,2.267
					c1.594-0.351,3.187-0.702,4.781-1.052c0.306-0.067,0.664-0.122,0.898,0.085c0.384,0.338,0.065,0.969-0.301,1.328
					c-1.716,1.686-4.317,2.414-6.659,1.865c0.817,0.488,1.851,0.189,2.783-0.01c0.931-0.199,2.105-0.179,2.59,0.64
					c0.328,0.553,0.182,1.294-0.209,1.805c-0.391,0.511-0.98,0.83-1.575,1.073c-3.229,1.319-6.893,0.785-10.301,0.042
					c-1.755-0.383-3.885-0.892-5.326,0.181c-1.81,1.348-3.62,2.696-5.431,4.044c-3.447,2.567-6.922,5.151-10.804,6.996
					c-3.882,1.845-8.245,2.922-12.497,2.297c-3.032-0.446-6.749-2.411-7.156-5.449c-0.52-3.881,1.243-7.664,2.96-11.183
					c5.916-12.127,6.257-15.311,13.056-26.274c0,0,6.911,4.232,8.73,4.944c1.819,0.712,4.803,2.232,6.712,2.908L213.678,302.048z"/>
			</g>
			<g id="XMLID_237_">
				<path id="XMLID_42_" style="fill:#3C3C3B;" d="M193.129,318.939c0,0,0.769-0.367,1.953-0.806
					c1.182-0.446,2.778-0.971,4.393-1.428c1.617-0.452,3.251-0.838,4.493-1.072c1.24-0.242,2.087-0.329,2.087-0.329
					s-0.768,0.368-1.952,0.808c-1.182,0.447-2.779,0.97-4.394,1.427c-1.617,0.451-3.252,0.836-4.493,1.071
					C193.976,318.852,193.129,318.939,193.129,318.939z"/>
			</g>
			<g id="XMLID_244_">
				<path id="XMLID_40_" style="fill:#3C3C3B;" d="M214.83,302.147c0,0,0.152-0.72,0.498-1.751c0.34-1.033,0.878-2.382,1.528-3.678
					c0.653-1.294,1.401-2.532,2.012-3.431c0.605-0.902,1.08-1.465,1.08-1.465s-0.21,0.706-0.627,1.708
					c-0.41,1.006-1.025,2.309-1.665,3.59c-0.648,1.277-1.316,2.547-1.861,3.486C215.257,301.546,214.83,302.147,214.83,302.147z"/>
			</g>
			<g id="XMLID_238_">
				<path id="XMLID_38_" style="fill:#3C3C3B;" d="M288.167,302.315c0,0-0.362-0.641-0.801-1.632
					c-0.446-0.99-0.978-2.322-1.491-3.66c-0.505-1.341-0.982-2.699-1.286-3.743c-0.312-1.04-0.448-1.763-0.448-1.763
					s0.414,0.608,0.923,1.568c0.515,0.958,1.131,2.266,1.647,3.621c0.513,1.356,0.909,2.753,1.14,3.816
					C288.09,301.584,288.167,302.315,288.167,302.315z"/>
			</g>
			<path id="XMLID_283_" style="fill:#5077A3;" d="M191.97,350.467c39.365,3.069,79.563,3.909,117.69-2.482l-55.028,32.785
				L191.97,350.467z"/>
			<path id="XMLID_205_" style="fill:#5077A3;" d="M228.985,393.396c32.434-1.139,66.988-3.27,97.327-14.797
				c4.824-1.833,9.652-3.948,13.519-7.366c3.867-3.417,6.688-8.355,6.446-13.51c-0.313-6.689-5.786-12.318-12.089-14.576
				c-6.304-2.258-13.26-1.728-19.842-0.499c-29.801,5.563-57.952,24.868-87.135,35.12L228.985,393.396z"/>
			<path id="XMLID_204_" style="fill:#3C3C3B;" d="M227.35,379.008c-6.917-0.451-13.554-1.367-20.478-1.299
				c-4.896,0.049-9.885,0.244-14.449,1.818c-2.093,0.722-4.097,1.749-5.624,3.25c-1.527,1.502-2.541,3.518-2.472,5.601
				c0.096,2.887,2.264,5.493,4.964,6.978c2.7,1.485,5.867,2.016,8.973,2.295c10.279,0.924,21.248-0.635,30.72-4.255L227.35,379.008z
				"/>
			<g id="XMLID_201_">
				<path id="XMLID_36_" style="fill:#3C3C3B;" d="M297.549,347.04c0,0-1.082,0.449-2.977,1.234
					c-0.955,0.373-2.094,0.873-3.399,1.445c-1.309,0.56-2.773,1.223-4.373,1.943c-1.605,0.704-3.322,1.52-5.14,2.375
					c-1.811,0.871-3.721,1.79-5.696,2.74c-3.941,1.929-8.145,3.986-12.349,6.044c-2.112,1.013-4.224,2.027-6.304,3.024
					c-2.076,1.004-4.152,1.93-6.148,2.849c-4.01,1.804-7.802,3.381-11.083,4.654c-0.82,0.318-1.606,0.622-2.354,0.911
					c-0.757,0.264-1.476,0.514-2.151,0.75c-1.35,0.472-2.525,0.884-3.508,1.179c-1.961,0.601-3.082,0.944-3.082,0.944
					s1.089-0.432,2.995-1.187c0.96-0.356,2.105-0.841,3.418-1.396c1.318-0.542,2.791-1.187,4.397-1.89
					c1.614-0.685,3.337-1.486,5.162-2.325c1.817-0.858,3.733-1.763,5.714-2.698c3.946-1.917,8.155-3.961,12.364-6.005
					c2.11-1.016,4.22-2.033,6.297-3.033c2.075-1.007,4.144-1.944,6.135-2.873c3.999-1.826,7.776-3.436,11.042-4.746
					c0.817-0.327,1.599-0.64,2.343-0.938c0.754-0.274,1.47-0.535,2.142-0.779c1.344-0.49,2.513-0.918,3.489-1.229
					C296.434,347.401,297.549,347.04,297.549,347.04z"/>
			</g>
			<path id="XMLID_200_" style="fill:#5077A3;" d="M272.799,392.152c-32.449-0.595-67.558-2.119-98.085-13.136
				c-4.854-1.752-9.717-3.786-13.641-7.138c-3.924-3.352-6.826-8.241-6.671-13.4c0.201-6.693,5.578-12.413,11.843-14.776
				c6.265-2.363,13.23-1.95,19.831-0.832c29.89,5.062,57.934,24.414,87.284,34.174L272.799,392.152z"/>
			<g id="XMLID_151_">
				<path id="XMLID_34_" style="fill:#3C3C3B;" d="M204.774,347.425c0,0,1.092,0.351,3.004,0.964
					c0.956,0.304,2.104,0.712,3.422,1.187c1.323,0.461,2.808,1,4.403,1.649c3.207,1.257,6.92,2.795,10.855,4.539
					c1.959,0.888,3.996,1.782,6.038,2.744c2.045,0.955,4.122,1.926,6.2,2.897c4.143,1.954,8.287,3.908,12.172,5.741
					c1.95,0.896,3.835,1.762,5.622,2.584c1.794,0.808,3.49,1.572,5.074,2.233c1.578,0.678,3.026,1.295,4.318,1.823
					c1.288,0.539,2.413,1.005,3.352,1.355c1.867,0.737,2.933,1.159,2.933,1.159s-1.098-0.333-3.02-0.916
					c-0.963-0.288-2.117-0.681-3.44-1.136c-0.663-0.226-1.368-0.467-2.111-0.72c-0.734-0.277-1.506-0.569-2.312-0.873
					c-3.222-1.219-6.95-2.724-10.897-4.445c-1.964-0.878-4.007-1.759-6.051-2.719c-2.047-0.952-4.127-1.92-6.206-2.888
					c-4.139-1.968-8.277-3.935-12.157-5.78c-1.944-0.911-3.823-1.791-5.604-2.627c-1.786-0.824-3.476-1.603-5.052-2.284
					c-3.142-1.389-5.761-2.535-7.627-3.28C205.834,347.863,204.774,347.425,204.774,347.425z"/>
			</g>
			<path id="XMLID_148_" style="fill:#3C3C3B;" d="M272.799,392.152c9.531,3.461,20,4.864,30.263,3.767
				c3.1-0.331,6.258-0.915,8.933-2.445s4.799-4.172,4.846-7.06c0.034-2.083-1.014-4.082-2.565-5.558
				c-1.552-1.476-3.573-2.469-5.678-3.156c-4.589-1.497-9.581-1.609-14.477-1.575c-6.924,0.047-13.852,0.355-20.76,0.921
				L272.799,392.152z"/>
		</g>
		<g id="XMLID_558_">
			<path id="XMLID_32_" style="fill:#3C3C3B;" d="M250.604,317.925c0,0-0.078,0.288-0.228,0.845
				c-0.075,0.279-0.168,0.625-0.279,1.036c-0.143,0.411-0.309,0.887-0.497,1.426c-0.798,2.12-2.194,5.207-4.905,8.478
				c-2.643,3.306-6.516,6.788-11.544,9.837c-5.034,3.116-11.237,5.446-18.068,7.63c-3.417,1.056-6.977,2.157-10.661,3.296
				c-3.667,1.15-7.445,2.419-11.16,4.078c-3.724,1.629-7.438,3.598-10.96,6.003c-3.511,2.419-6.813,5.278-9.755,8.522
				c-2.925,3.254-5.491,6.915-7.316,11.003c-0.449,1.022-0.799,2.089-1.209,3.138c-0.286,1.07-0.612,2.204-0.853,3.239
				c-0.429,2.331-0.697,4.523-0.595,6.818c-0.001,2.292,0.379,4.576,0.833,6.839c0.293,1.117,0.568,2.246,0.931,3.348
				c0.399,1.091,0.731,2.209,1.229,3.266l0.694,1.606l0.799,1.56c0.502,1.058,1.146,2.039,1.729,3.056
				c0.592,1.012,1.292,1.957,1.934,2.942c0.724,0.924,1.4,1.89,2.167,2.782c3.026,3.612,6.512,6.816,10.441,9.464
				c1.947,1.298,3.965,2.515,6.062,3.567c2.088,1.067,4.249,1.968,6.409,2.826c8.647,3.432,17.546,5.835,26.278,7.639
				c8.731,1.835,17.271,3.227,25.289,5.045c8.014,1.762,15.629,3.663,22.251,6.606c6.628,2.904,12.228,6.731,16.503,10.78
				c2.188,1.989,3.917,4.173,5.465,6.204c1.441,2.116,2.672,4.133,3.502,6.096c1.723,3.9,2.271,7.253,2.421,9.512
				c0.107,1.13,0.019,2.006,0.04,2.59c-0.004,0.586-0.007,0.888-0.007,0.888l-0.747-0.033c0,0-0.009-0.294-0.028-0.863
				c-0.044-0.567,0.011-1.416-0.136-2.505c-0.224-2.18-0.901-5.375-2.67-9.067c-0.842-1.864-2.079-3.777-3.515-5.78
				c-1.54-1.929-3.274-3.971-5.414-5.874c-4.206-3.889-9.65-7.47-16.139-10.279c-6.493-2.796-13.814-5.289-21.796-7.063
				c-7.981-1.759-16.512-3.136-25.31-4.82c-8.77-1.746-17.917-3.776-26.598-7.63c-2.145-1.006-4.284-2.046-6.346-3.245
				c-2.098-1.128-4.109-2.419-6.133-3.725c-3.939-2.674-7.66-5.837-10.828-9.477c-3.206-3.614-5.827-7.758-7.746-12.194
				c-0.522-1.092-0.879-2.251-1.3-3.382c-0.385-1.144-0.682-2.318-0.993-3.482c-0.491-2.36-0.901-4.748-0.917-7.157
				c-0.004-0.603-0.065-1.197-0.021-1.806l0.109-1.82l0.058-0.906l0.123-0.866l0.246-1.729c0.249-1.236,0.546-2.341,0.828-3.512
				c0.401-1.117,0.747-2.257,1.197-3.349c1.81-4.376,4.533-8.271,7.713-11.53c3.173-3.282,6.785-5.95,10.46-8.251l1.37-0.871
				l1.399-0.802c0.925-0.543,1.859-1.055,2.803-1.535c0.934-0.497,1.861-0.995,2.812-1.428c0.945-0.446,1.872-0.911,2.831-1.302
				c7.573-3.288,15.094-5.319,21.863-7.556c6.77-2.193,12.873-4.648,17.803-7.556c4.949-2.92,8.764-6.27,11.367-9.447
				c2.65-3.151,4.093-6.095,4.921-8.111c0.195-0.511,0.367-0.962,0.516-1.352c0.122-0.408,0.225-0.752,0.308-1.028
				c0.166-0.553,0.251-0.839,0.251-0.839L250.604,317.925z"/>
		</g>
	</g>
	<g id="XMLID_235_">
		<path id="XMLID_339_" style="fill:#4EA685;" d="M61.423,242.841c0.028-5.853-1.305-13.585-3.881-18.84
			c-1.583-3.23-3.66-6.343-4.116-9.911c-0.765-5.985,3.148-11.462,4.678-17.299c1.91-7.288,0.066-15.185,2.102-22.439
			c0.68-2.422,2.084-4.981,4.524-5.595c2.434-0.612,4.986,1.071,6.159,3.289c1.173,2.219,1.272,4.834,1.242,7.343
			c-0.044,3.745-0.314,7.523,0.326,11.213c0.561,3.235,1.809,6.322,2.332,9.563c2.329,14.429-9.898,28.56-6.63,42.806
			c0,0-0.614,2.181-3.804,2.137C61.164,245.065,61.423,242.841,61.423,242.841z"/>
		<g id="XMLID_334_">
			<path id="XMLID_30_" style="fill:#3C3C3B;" d="M65.841,176.798c0,0,0.071,0.24,0.204,0.689c0.135,0.445,0.317,1.121,0.515,1.975
				c0.391,1.712,0.848,4.19,1.027,7.196c0.204,3.005,0.1,6.521-0.201,10.265c-0.304,3.746-0.849,7.714-1.357,11.677
				c-0.524,3.962-0.944,7.926-1.178,11.657c-0.125,1.865-0.203,3.67-0.257,5.382c-0.078,1.711-0.114,3.33-0.135,4.825
				c-0.041,2.99-0.028,5.484-0.008,7.23c0.022,1.747,0.035,2.746,0.035,2.746c0.001,0.108-0.085,0.197-0.193,0.198
				c-0.101,0.001-0.185-0.077-0.197-0.175c0,0-0.111-0.996-0.231-2.745c-0.123-1.748-0.253-4.252-0.262-7.259
				c-0.018-3.007,0.088-6.517,0.396-10.263c0.286-3.748,0.746-7.735,1.337-11.691c0.585-3.957,1.204-7.903,1.578-11.624
				c0.396-3.72,0.463-7.217,0.29-10.199c-0.168-2.984-0.592-5.445-1.004-7.135c-0.202-0.848-0.382-1.499-0.522-1.949
				c-0.136-0.448-0.209-0.687-0.209-0.687c-0.031-0.103,0.027-0.212,0.13-0.244c0.103-0.031,0.212,0.027,0.244,0.13L65.841,176.798z
				"/>
		</g>
		<path id="XMLID_332_" style="fill:#92D5AC;" d="M55.064,242.842c-1.134-5.742-3.973-13.056-7.54-17.696
			c-2.192-2.852-4.845-5.491-6-8.898c-1.937-5.715,0.813-11.859,1.154-17.883c0.427-7.522-2.947-14.896-2.389-22.41
			c0.186-2.509,1.055-5.296,3.324-6.381c2.264-1.083,5.099,0.061,6.689,2.003c1.59,1.942,2.205,4.486,2.674,6.951
			c0.7,3.68,1.184,7.436,2.543,10.926c1.191,3.059,3.027,5.838,4.182,8.911c5.144,13.68-4.038,29.956,1.99,43.271
			c0,0-0.169,2.259-3.305,2.849C55.251,245.074,55.064,242.842,55.064,242.842z"/>
		<g id="XMLID_297_">
			<path id="XMLID_28_" style="fill:#3C3C3B;" d="M46.299,177.235c0,0,0.117,0.221,0.337,0.635c0.221,0.409,0.533,1.036,0.896,1.834
				c0.723,1.6,1.662,3.938,2.433,6.85c0.796,2.905,1.391,6.372,1.839,10.1c0.445,3.732,0.697,7.73,0.986,11.714
				c0.272,3.987,0.647,7.956,1.156,11.659c0.247,1.853,0.529,3.637,0.816,5.326c0.263,1.693,0.549,3.287,0.824,4.756
				c0.553,2.939,1.06,5.38,1.425,7.088c0.368,1.708,0.579,2.684,0.579,2.684c0.023,0.105-0.044,0.209-0.15,0.232
				c-0.099,0.021-0.197-0.038-0.228-0.133c0,0-0.306-0.954-0.771-2.644c-0.467-1.689-1.091-4.117-1.697-7.063
				c-0.613-2.944-1.205-6.405-1.647-10.138c-0.463-3.73-0.803-7.729-1.008-11.724c-0.212-3.995-0.387-7.985-0.758-11.706
				c-0.35-3.724-0.977-7.165-1.738-10.054c-0.756-2.891-1.66-5.22-2.398-6.794c-0.366-0.791-0.672-1.394-0.899-1.807
				c-0.222-0.412-0.341-0.632-0.341-0.632c-0.051-0.095-0.016-0.213,0.079-0.264c0.095-0.051,0.213-0.016,0.264,0.079
				L46.299,177.235z"/>
		</g>
		<path id="XMLID_296_" style="fill:#92D5AC;" d="M72.179,242.341c1.654-5.614,5.15-12.638,9.127-16.933
			c2.444-2.639,5.327-5.025,6.788-8.312c2.452-5.514,0.275-11.883,0.486-17.914c0.263-7.53,4.297-14.564,4.428-22.098
			c0.044-2.515-0.566-5.37-2.727-6.658c-2.155-1.285-5.083-0.406-6.844,1.383c-1.76,1.788-2.606,4.265-3.298,6.678
			c-1.033,3.6-1.859,7.296-3.532,10.648c-1.466,2.938-3.548,5.537-4.98,8.491c-6.374,13.153,1.282,30.2-5.939,42.908
			c0,0-0.038,2.265,3.031,3.139C71.788,244.546,72.179,242.341,72.179,242.341z"/>
		<g id="XMLID_293_">
			<path id="XMLID_26_" style="fill:#3C3C3B;" d="M87.233,178.025c0,0-0.138,0.208-0.397,0.598c-0.264,0.391-0.623,0.963-1.06,1.717
				c-0.88,1.5-1.992,3.736-3.01,6.546c-1.022,2.807-1.962,6.176-2.65,9.853c-0.71,3.672-1.249,7.63-1.826,11.588
				c-0.57,3.959-1.275,7.911-2.076,11.583c-0.782,3.677-1.688,7.07-2.568,9.945c-0.872,2.878-1.716,5.238-2.335,6.878
				c-0.618,1.641-1.01,2.563-1.01,2.563c-0.041,0.1-0.156,0.147-0.256,0.105c-0.093-0.039-0.14-0.144-0.111-0.239
				c0,0,0.299-0.953,0.822-2.62c0.52-1.667,1.248-4.052,2.068-6.928c0.409-1.438,0.839-3,1.256-4.661
				c0.44-1.655,0.884-3.407,1.299-5.229c0.846-3.641,1.583-7.559,2.218-11.504c0.651-3.942,1.268-7.899,2.053-11.575
				c0.787-3.672,1.697-7.07,2.755-9.89c1.034-2.829,2.183-5.071,3.049-6.599c0.434-0.762,0.803-1.357,1.06-1.745
				c0.257-0.392,0.393-0.601,0.393-0.601c0.059-0.09,0.18-0.116,0.27-0.056c0.09,0.059,0.115,0.18,0.056,0.27L87.233,178.025z"/>
		</g>
		<path id="XMLID_274_" style="fill:#5D89B4;" d="M64.764,284.773c-26.407,0.517-24.506-49.846-24.506-49.846
			c15.617,1.781,31.459,1.589,47.028-0.571C87.286,234.355,91.44,284.251,64.764,284.773z"/>
		<g id="XMLID_587_">
			<path id="XMLID_24_" style="fill:#3C3C3B;" d="M83.684,238.564c0,0-0.599,0.11-1.647,0.302c-1.047,0.182-2.56,0.457-4.376,0.68
				c-3.633,0.479-8.505,0.888-13.388,1.042c-2.442,0.05-4.886,0.041-7.175-0.023c-2.289-0.066-4.424-0.203-6.249-0.357
				c-1.827-0.139-3.342-0.339-4.403-0.472c-1.059-0.142-1.664-0.224-1.664-0.224c-0.157-0.021-0.267-0.166-0.246-0.323
				c0.021-0.155,0.164-0.264,0.319-0.247c0,0,2.415,0.273,6.051,0.489c1.817,0.126,3.941,0.188,6.215,0.251
				c2.276,0.054,4.704,0.036,7.131-0.01c4.855-0.087,9.706-0.427,13.323-0.853c3.616-0.39,6.025-0.776,6.025-0.776
				c0.143-0.023,0.278,0.075,0.301,0.218C83.923,238.404,83.824,238.538,83.684,238.564z"/>
		</g>
		<path id="XMLID_241_" style="opacity:0.27;fill:#5D89B4;" d="M51.252,278.945c3.374,3.652,7.775,5.94,13.511,5.828
			c26.676-0.522,22.522-50.417,22.522-50.417S86.743,286.914,51.252,278.945"/>
	</g>
	<rect id="XMLID_248_" x="30.898" y="283.777" style="fill:#8DA5B6;" width="63.393" height="6.274"/>
	<g id="XMLID_256_">
		<path id="XMLID_586_" style="fill:#4EA685;" d="M437.037,331.108c0.027-5.853-1.305-13.585-3.881-18.84
			c-1.583-3.23-3.66-6.343-4.116-9.911c-0.765-5.985,3.148-11.462,4.678-17.299c1.91-7.288,0.066-15.185,2.102-22.439
			c0.68-2.422,2.084-4.981,4.524-5.595c2.434-0.613,4.986,1.07,6.159,3.289c1.173,2.219,1.272,4.834,1.242,7.343
			c-0.044,3.745-0.314,7.523,0.326,11.213c0.561,3.235,1.809,6.322,2.332,9.563c2.329,14.429-9.898,28.56-6.63,42.806
			c0,0-0.614,2.181-3.804,2.137C436.778,333.332,437.037,331.108,437.037,331.108z"/>
		<g id="XMLID_291_">
			<path id="XMLID_22_" style="fill:#3C3C3B;" d="M441.455,265.065c0,0,0.071,0.24,0.204,0.689c0.136,0.445,0.318,1.121,0.515,1.975
				c0.391,1.712,0.848,4.19,1.027,7.196c0.204,3.005,0.1,6.521-0.201,10.264c-0.304,3.746-0.849,7.714-1.357,11.677
				c-0.524,3.962-0.943,7.926-1.178,11.657c-0.125,1.865-0.203,3.67-0.257,5.382c-0.078,1.711-0.114,3.331-0.135,4.825
				c-0.041,2.99-0.028,5.483-0.008,7.23c0.023,1.747,0.035,2.746,0.035,2.746c0.001,0.108-0.085,0.197-0.193,0.198
				c-0.101,0.001-0.186-0.077-0.197-0.175c0,0-0.111-0.996-0.231-2.745c-0.123-1.748-0.253-4.252-0.262-7.259
				c-0.018-3.007,0.088-6.517,0.395-10.263c0.286-3.748,0.746-7.735,1.337-11.691c0.585-3.957,1.204-7.903,1.578-11.624
				c0.396-3.72,0.463-7.217,0.29-10.199c-0.168-2.984-0.592-5.445-1.004-7.135c-0.202-0.848-0.382-1.499-0.522-1.949
				c-0.136-0.448-0.209-0.687-0.209-0.687c-0.031-0.103,0.027-0.212,0.13-0.243c0.103-0.031,0.212,0.027,0.244,0.13L441.455,265.065
				z"/>
		</g>
		<path id="XMLID_290_" style="fill:#92D5AC;" d="M430.679,331.11c-1.134-5.742-3.973-13.056-7.54-17.696
			c-2.192-2.852-4.845-5.491-6-8.898c-1.937-5.715,0.813-11.859,1.154-17.883c0.427-7.522-2.947-14.896-2.389-22.41
			c0.186-2.509,1.055-5.296,3.324-6.381c2.264-1.083,5.099,0.061,6.689,2.003c1.59,1.942,2.205,4.486,2.674,6.951
			c0.7,3.68,1.184,7.436,2.543,10.926c1.191,3.059,3.027,5.838,4.182,8.911c5.144,13.68-4.038,29.956,1.99,43.271
			c0,0-0.169,2.259-3.305,2.849C430.866,333.341,430.679,331.11,430.679,331.11z"/>
		<g id="XMLID_282_">
			<path id="XMLID_20_" style="fill:#3C3C3B;" d="M421.913,265.503c0,0,0.117,0.221,0.337,0.635
				c0.221,0.409,0.533,1.035,0.896,1.834c0.723,1.6,1.662,3.938,2.433,6.85c0.796,2.905,1.391,6.372,1.839,10.1
				c0.445,3.732,0.697,7.73,0.986,11.714c0.272,3.987,0.647,7.955,1.156,11.659c0.247,1.853,0.529,3.637,0.816,5.326
				c0.263,1.693,0.548,3.287,0.824,4.756c0.553,2.939,1.06,5.38,1.425,7.088c0.368,1.708,0.579,2.684,0.579,2.684
				c0.023,0.105-0.044,0.209-0.15,0.232c-0.099,0.021-0.197-0.038-0.228-0.133c0,0-0.306-0.954-0.771-2.644
				c-0.467-1.689-1.091-4.117-1.697-7.063c-0.613-2.943-1.205-6.405-1.647-10.138c-0.463-3.73-0.803-7.73-1.008-11.724
				c-0.212-3.995-0.387-7.985-0.758-11.706c-0.35-3.724-0.977-7.165-1.738-10.054c-0.756-2.891-1.66-5.22-2.398-6.794
				c-0.366-0.791-0.672-1.394-0.899-1.807c-0.223-0.412-0.341-0.632-0.341-0.632c-0.051-0.095-0.016-0.213,0.079-0.264
				c0.095-0.051,0.213-0.016,0.264,0.079L421.913,265.503z"/>
		</g>
		<path id="XMLID_281_" style="fill:#92D5AC;" d="M447.793,330.609c1.654-5.614,5.15-12.638,9.127-16.933
			c2.444-2.639,5.327-5.025,6.788-8.312c2.452-5.514,0.275-11.884,0.486-17.914c0.263-7.53,4.297-14.564,4.428-22.098
			c0.044-2.515-0.566-5.37-2.727-6.658c-2.155-1.285-5.083-0.406-6.844,1.383c-1.761,1.788-2.606,4.265-3.298,6.677
			c-1.033,3.6-1.859,7.296-3.532,10.648c-1.466,2.938-3.548,5.537-4.98,8.491c-6.374,13.153,1.282,30.2-5.939,42.908
			c0,0-0.038,2.265,3.031,3.139C447.403,332.814,447.793,330.609,447.793,330.609z"/>
		<g id="XMLID_273_">
			<path id="XMLID_18_" style="fill:#3C3C3B;" d="M462.848,266.292c0,0-0.138,0.208-0.398,0.598
				c-0.264,0.391-0.623,0.963-1.06,1.717c-0.88,1.5-1.992,3.737-3.01,6.546c-1.022,2.807-1.962,6.176-2.65,9.853
				c-0.71,3.672-1.249,7.629-1.826,11.588c-0.57,3.959-1.274,7.911-2.076,11.583c-0.781,3.677-1.688,7.069-2.568,9.945
				c-0.872,2.878-1.716,5.238-2.335,6.878c-0.617,1.641-1.01,2.563-1.01,2.563c-0.042,0.1-0.156,0.147-0.255,0.105
				c-0.093-0.039-0.14-0.144-0.111-0.239c0,0,0.299-0.953,0.822-2.62c0.52-1.667,1.248-4.052,2.068-6.928
				c0.409-1.438,0.839-3,1.256-4.661c0.44-1.655,0.884-3.407,1.299-5.229c0.846-3.641,1.583-7.559,2.218-11.504
				c0.652-3.941,1.268-7.899,2.053-11.575c0.787-3.672,1.697-7.07,2.755-9.89c1.034-2.829,2.183-5.071,3.049-6.599
				c0.434-0.762,0.803-1.357,1.06-1.744c0.257-0.392,0.393-0.601,0.393-0.601c0.059-0.09,0.18-0.116,0.27-0.057
				c0.09,0.059,0.115,0.18,0.056,0.27L462.848,266.292z"/>
		</g>
		<path id="XMLID_272_" style="fill:#5D89B4;" d="M440.378,373.04c-26.408,0.517-24.506-49.846-24.506-49.846
			c15.617,1.781,31.459,1.589,47.028-0.571C462.901,322.623,467.054,372.518,440.378,373.04z"/>
		<path id="XMLID_271_" style="opacity:0.27;fill:#5D89B4;" d="M426.867,367.212c3.374,3.652,7.775,5.94,13.511,5.828
			c26.676-0.522,22.522-50.418,22.522-50.418S462.358,375.181,426.867,367.212"/>
		<g id="XMLID_590_">
			<path id="XMLID_16_" style="fill:#3C3C3B;" d="M459.775,325.887c0,0-0.599,0.11-1.647,0.302c-1.047,0.182-2.56,0.457-4.376,0.68
				c-3.633,0.479-8.505,0.888-13.388,1.042c-2.443,0.05-4.886,0.041-7.175-0.023c-2.29-0.066-4.424-0.203-6.249-0.357
				c-1.827-0.139-3.342-0.339-4.402-0.472c-1.059-0.142-1.664-0.224-1.664-0.224c-0.157-0.021-0.267-0.166-0.246-0.323
				c0.021-0.155,0.164-0.264,0.319-0.247c0,0,2.415,0.272,6.051,0.489c1.817,0.126,3.941,0.188,6.215,0.251
				c2.276,0.054,4.704,0.036,7.131-0.01c4.855-0.086,9.706-0.427,13.323-0.853c3.616-0.39,6.025-0.776,6.025-0.776
				c0.143-0.023,0.278,0.075,0.301,0.218C460.013,325.728,459.915,325.861,459.775,325.887z"/>
		</g>
	</g>
</g>
</svg>
